#!OML:ASF X:\für Bonn\!DataBase\2005_08_10_Bjorn_Final\c3d\bjorn.ASF
:FULLY-SPECIFIED
:DEGREES
200
root 15.5877 18.1011 1.71853 174.518 -104.108 -139.069
lowerback 72.1069 -3.80982 12.4964
upperback 16.4533 0.974819 -0.724384
thorax -1.69835 0.475357 -6.09965
lowerneck 3.69728 -6.96068 12.1319
upperneck -18.5436 -8.63107 0.0549437
head -6.85 -5.21916 -1.2854
rclavicle 8.90555e-014 -7.95139e-015
rhumerus 67.3646 -10.0196 -26.8827
rradius 20.0738
rwrist 11.9316
rhand -35.5503 30.3412
rfingers 7.12502
rthumb -8.67587 0.53946
lclavicle 8.90555e-014 -7.95139e-015
lhumerus -15.8691 -33.4428 83.5445
lradius 56.5147
lwrist 0.878197
lhand -34.6838 -12.8324
lfingers 7.12502
lthumb -7.83957 17.0022
rfemur -66.0963 -8.3484 1.83876
rtibia 54.8903
rfoot -18.1131 -1.66366
rtoes -13.727
lfemur -67.5231 0.110724 -30.2375
ltibia 54.6497
lfoot -12.416 3.88953
ltoes -21.8909
201
root 15.5911 18.0933 1.71483 174.516 -104.155 -139.045
lowerback 72.1427 -3.8028 12.5381
upperback 16.4267 1.0171 -0.778148
thorax -1.71802 0.505696 -6.193
lowerneck 3.54591 -6.99598 12.0751
upperneck -18.4216 -8.67838 0.204429
head -6.77835 -5.24516 -1.23321
rclavicle 5.08889e-014 -1.43125e-014
rhumerus 67.1597 -9.70309 -25.8438
rradius 20.3583
rwrist 12.6535
rhand -35.5872 30.6951
rfingers 7.12502
rthumb -8.71149 0.894828
lclavicle 5.08889e-014 -1.43125e-014
lhumerus -15.8507 -33.4792 83.5843
lradius 56.5095
lwrist 0.883664
lhand -34.774 -12.9395
lfingers 7.12502
lthumb -7.92667 16.8919
rfemur -66.1882 -8.3107 1.76723
rtibia 55.031
rfoot -18.1811 -1.76748
rtoes -13.7541
lfemur -67.6427 0.104405 -30.2733
ltibia 54.7977
lfoot -12.4261 3.83861
ltoes -21.884
202
root 15.5937 18.0846 1.7102 174.406 -104.207 -138.926
lowerback 72.2239 -3.7925 12.5591
upperback 16.3861 1.05721 -0.833892
thorax -1.75222 0.5334 -6.27855
lowerneck 3.37089 -7.02285 11.9975
upperneck -18.281 -8.71661 0.370132
head -6.69423 -5.26574 -1.17518
rclavicle 3.18055e-014 -4.92986e-014
rhumerus 66.91 -9.3298 -24.598
rradius 20.6699
rwrist 13.1633
rhand -35.5939 31.0512
rfingers 7.12502
rthumb -8.71791 1.25128
lclavicle 3.18055e-014 -4.92986e-014
lhumerus -15.8441 -33.4744 83.6457
lradius 56.5205
lwrist 0.917741
lhand -34.8486 -13.0819
lfingers 7.12502
lthumb -7.99864 16.7467
rfemur -66.2581 -8.27742 1.67593
rtibia 55.1735
rfoot -18.2532 -1.87451
rtoes -13.9241
lfemur -67.7413 0.095428 -30.3324
ltibia 54.9385
lfoot -12.4217 3.81652
ltoes -21.9103
203
root 15.5969 18.076 1.70477 174.305 -104.269 -138.811
lowerback 72.3078 -3.78552 12.581
upperback 16.3249 1.09996 -0.893033
thorax -1.80957 0.561131 -6.36924
lowerneck 3.33683 -7.05957 11.9061
upperneck -18.2309 -8.73941 0.579781
head -6.66054 -5.28331 -1.09511
rclavicle 2.22639e-014 -3.18055e-014
rhumerus 66.6172 -8.90242 -23.2445
rradius 20.9992
rwrist 13.5824
rhand -35.5602 31.3852
rfingers 7.12502
rthumb -8.68538 1.58385
lclavicle 2.22639e-014 -3.18055e-014
lhumerus -15.8618 -33.4903 83.6994
lradius 56.5445
lwrist 0.996156
lhand -34.8969 -13.1611
lfingers 7.12502
lthumb -8.0453 16.6658
rfemur -66.3389 -8.24341 1.58335
rtibia 55.3163
rfoot -18.3191 -1.98919
rtoes -14.0625
lfemur -67.8472 0.0693286 -30.3815
ltibia 55.0866
lfoot -12.4337 3.77748
ltoes -21.9
204
root 15.5992 18.0672 1.69832 174.204 -104.321 -138.69
lowerback 72.4143 -3.76146 12.5797
upperback 16.2587 1.14817 -0.949623
thorax -1.87277 0.589073 -6.44979
lowerneck 3.27989 -7.10099 11.8247
upperneck -18.1457 -8.77837 0.753333
head -6.61429 -5.30526 -1.02853
rclavicle 6.99722e-014 -1.11319e-014
rhumerus 66.3649 -8.49481 -21.9816
rradius 21.3148
rwrist 13.9824
rhand -35.3995 31.7792
rfingers 7.12502
rthumb -8.53032 1.97148
lclavicle 6.99722e-014 -1.11319e-014
lhumerus -15.8875 -33.4937 83.764
lradius 56.5789
lwrist 1.08851
lhand -34.9649 -13.2997
lfingers 7.12502
lthumb -8.11087 16.5246
rfemur -66.4239 -8.18781 1.48051
rtibia 55.4605
rfoot -18.3926 -2.11932
rtoes -14.1225
lfemur -67.9574 0.064889 -30.4378
ltibia 55.2251
lfoot -12.4404 3.75061
ltoes -21.9088
205
root 15.6016 18.0593 1.69202 174.224 -104.366 -138.72
lowerback 72.5252 -3.75533 12.6126
upperback 16.2204 1.19174 -1.01219
thorax -1.8996 0.619708 -6.54838
lowerneck 3.23218 -7.13788 11.7391
upperneck -18.128 -8.80698 0.948322
head -6.58976 -5.32714 -0.953611
rclavicle 1.01778e-013 -4.45278e-014
rhumerus 66.0673 -8.0619 -20.4143
rradius 21.6897
rwrist 14.0666
rhand -35.2218 31.8701
rfingers 7.12502
rthumb -8.35884 2.05547
lclavicle 1.01778e-013 -4.45278e-014
lhumerus -15.8258 -33.4668 83.7731
lradius 56.5701
lwrist 1.11155
lhand -35.0316 -13.4841
lfingers 7.12502
lthumb -8.17527 16.3378
rfemur -66.4818 -8.14266 1.44074
rtibia 55.6051
rfoot -18.451 -2.24451
rtoes -14.3213
lfemur -68.039 0.0406928 -30.4291
ltibia 55.3683
lfoot -12.4535 3.7295
ltoes -21.9076
206
root 15.6044 18.0502 1.68401 174.127 -104.416 -138.601
lowerback 72.6177 -3.7183 12.5944
upperback 16.171 1.23749 -1.06134
thorax -1.94644 0.645886 -6.61373
lowerneck 3.19816 -7.17817 11.6339
upperneck -18.0483 -8.84784 1.10004
head -6.54858 -5.34687 -0.889579
rclavicle 1.27222e-014 -4.29375e-014
rhumerus 65.8657 -7.71114 -19.1724
rradius 21.9988
rwrist 14.5153
rhand -35.0041 31.5625
rfingers 7.12502
rthumb -8.14873 1.73959
lclavicle 1.27222e-014 -4.29375e-014
lhumerus -15.8516 -33.4192 83.8248
lradius 56.643
lwrist 1.15978
lhand -35.1036 -13.6966
lfingers 7.12502
lthumb -8.24476 16.1225
rfemur -66.5858 -8.09338 1.34833
rtibia 55.758
rfoot -18.5052 -2.3397
rtoes -14.2523
lfemur -68.1511 0.026195 -30.4683
ltibia 55.5027
lfoot -12.4614 3.7085
ltoes -21.8597
207
root 15.6071 18.041 1.6762 173.964 -104.48 -138.432
lowerback 72.7547 -3.71044 12.5851
upperback 16.1018 1.26563 -1.13695
thorax -2.01267 0.667401 -6.70481
lowerneck 3.1748 -7.23092 11.6064
upperneck -17.9673 -8.9062 1.20025
head -6.51614 -5.37598 -0.851676
rclavicle 3.18055e-015 5.24792e-014
rhumerus 65.6071 -7.30532 -17.7554
rradius 22.3318
rwrist 14.7499
rhand -34.8122 31.2544
rfingers 7.12502
rthumb -7.96356 1.42438
lclavicle 3.18055e-015 5.24792e-014
lhumerus -15.8792 -33.3597 83.8368
lradius 56.7061
lwrist 1.10093
lhand -35.1874 -13.8048
lfingers 7.12502
lthumb -8.32562 16.0111
rfemur -66.6579 -8.04529 1.23252
rtibia 55.9107
rfoot -18.5796 -2.46685
rtoes -14.3917
lfemur -68.241 0.00732118 -30.5296
ltibia 55.6353
lfoot -12.459 3.67346
ltoes -21.9117
208
root 15.61 18.0321 1.66646 173.956 -104.542 -138.425
lowerback 72.9107 -3.7014 12.6007
upperback 16.0183 1.31665 -1.20193
thorax -2.08842 0.697214 -6.80141
lowerneck 3.1402 -7.29027 11.5015
upperneck -17.8492 -8.96758 1.38078
head -6.46224 -5.40542 -0.778152
rclavicle -1.27222e-014 6.83819e-014
rhumerus 65.3342 -6.90944 -16.3619
rradius 22.659
rwrist 14.9904
rhand -34.4769 30.969
rfingers 7.12502
rthumb -7.63993 1.12699
lclavicle -1.27222e-014 6.83819e-014
lhumerus -15.9199 -33.2998 83.885
lradius 56.7449
lwrist 1.10798
lhand -35.2333 -14.0268
lfingers 7.12502
lthumb -8.36994 15.7874
rfemur -66.7296 -7.98643 1.16557
rtibia 56.0702
rfoot -18.652 -2.57497
rtoes -14.3262
lfemur -68.3296 -0.0161209 -30.5312
ltibia 55.7653
lfoot -12.4783 3.65318
ltoes -21.9339
209
root 15.613 18.0233 1.6576 173.806 -104.621 -138.263
lowerback 73.0862 -3.69121 12.5823
upperback 15.9113 1.35647 -1.25936
thorax -2.19422 0.717452 -6.87157
lowerneck 3.14175 -7.34915 11.3864
upperneck -17.763 -9.02726 1.54559
head -6.42459 -5.43362 -0.706179
rclavicle -6.99722e-014 4.13472e-014
rhumerus 65.0457 -6.48105 -14.9445
rradius 23.0163
rwrist 15.1638
rhand -34.0421 30.7304
rfingers 7.12502
rthumb -7.22025 0.873599
lclavicle -6.99722e-014 4.13472e-014
lhumerus -16.024 -33.2321 83.9653
lradius 56.8281
lwrist 1.12499
lhand -35.2285 -14.1085
lfingers 7.12502
lthumb -8.36527 15.7059
rfemur -66.8092 -7.95554 1.05466
rtibia 56.2298
rfoot -18.7168 -2.69227
rtoes -14.286
lfemur -68.4236 -0.0625664 -30.5726
ltibia 55.8916
lfoot -12.4826 3.60633
ltoes -21.7206
210
root 15.6169 18.0128 1.64792 173.756 -104.695 -138.2
lowerback 73.2356 -3.68063 12.5705
upperback 15.825 1.39287 -1.31621
thorax -2.27791 0.737801 -6.94323
lowerneck 3.16371 -7.39861 11.2435
upperneck -17.6821 -9.06691 1.7459
head -6.38798 -5.45279 -0.619751
rclavicle -3.81667e-014 -6.20208e-014
rhumerus 64.8369 -6.12946 -13.8949
rradius 23.2956
rwrist 15.6131
rhand -33.5466 30.6657
rfingers 7.12502
rthumb -6.74194 0.793001
lclavicle -3.81667e-014 -6.20208e-014
lhumerus -16.0976 -33.1497 84.0231
lradius 56.8974
lwrist 1.18188
lhand -35.2044 -14.1662
lfingers 7.12502
lthumb -8.34199 15.649
rfemur -66.9091 -7.9371 0.986577
rtibia 56.4017
rfoot -18.7889 -2.79159
rtoes -14.303
lfemur -68.5245 -0.0947481 -30.5958
ltibia 56.0204
lfoot -12.4756 3.58562
ltoes -21.7912
